<svg width="20" height="20" viewBox="0 0 20 20" fill="none" xmlns="http://www.w3.org/2000/svg">
	<g clip-path="url(#clip0_3_663)">
		<circle cx="10" cy="10" r="10" fill="currentColor" />
		<path d="M0.5 10C0.5 4.75333 4.75333 0.5 10 0.5C15.247 0.5 19.5 4.75332 19.5 10C19.5 15.247 15.247 19.5 10 19.5C4.75332 19.5 0.5 15.247 0.5 10ZM0.75 9.99996C0.75 15.0994 4.89771 19.2697 10 19.2697C15.1023 19.2697 19.25 15.0993 19.25 9.99996C19.25 4.89915 15.1008 0.749961 10 0.749961C4.89917 0.749961 0.75 4.89913 0.75 9.99996Z" fill="currentColor" stroke="black" />
		<path d="M6.49069 6.71652L13.5074 6.71652C13.7844 6.71609 14.0558 6.80012 14.2903 6.95889C14.5248 7.11766 14.7127 7.34467 14.8324 7.61365C14.9724 7.9328 15.0263 8.28787 14.988 8.63842C14.9497 8.98896 14.8207 9.32086 14.6157 9.59631L11.1074 14.1717C10.9697 14.3427 10.7995 14.4799 10.6082 14.5739C10.417 14.6679 10.2092 14.7165 9.99903 14.7165C9.78881 14.7165 9.58105 14.6679 9.38982 14.5739C9.19859 14.4799 9.02837 14.3427 8.89069 14.1717L5.38236 9.59631C5.17735 9.32086 5.04835 8.98896 5.01004 8.63842C4.97173 8.28787 5.02567 7.9328 5.16569 7.61365C5.28531 7.34467 5.47324 7.11766 5.70773 6.95889C5.94222 6.80012 6.21368 6.71609 6.49069 6.71652ZM13.3324 8.51078L6.74903 8.51078L9.99903 12.835L13.3324 8.51078Z" fill="black" />
	</g>
	<defs>
		<clipPath id="clip0_3_663">
			<rect width="20" height="20" fill="white" />
		</clipPath>
	</defs>
</svg>
