<svg width="30" height="30" viewBox="0 0 30 30" fill="none" xmlns="http://www.w3.org/2000/svg">
	<g clip-path="url(#clip0_3_567)">
		<path d="M15 0C6.71578 0 0 6.71578 0 15C0 23.2847 6.71578 30 15 30C23.2847 30 30 23.2847 30 15C30 6.71578 23.2847 0 15 0ZM15 28.1545C7.76297 28.1545 1.875 22.237 1.875 14.9999C1.875 7.76291 7.76297 1.87494 15 1.87494C22.237 1.87494 28.125 7.76294 28.125 14.9999C28.125 22.2369 22.237 28.1545 15 28.1545Z" fill="currentColor" />
		<path fill-rule="evenodd" clip-rule="evenodd" d="M12.75 10V8.5H17.25V10H12.75ZM11.25 10V8C11.25 7.73478 11.3554 7.48043 11.5429 7.29289C11.7304 7.10536 11.9848 7 12.25 7H17.75C18.0152 7 18.2696 7.10536 18.4571 7.29289C18.6446 7.48043 18.75 7.73478 18.75 8V10H21.25C21.4489 10 21.6397 10.079 21.7803 10.2197C21.921 10.3603 22 10.5511 22 10.75C22 10.9489 21.921 11.1397 21.7803 11.2803C21.6397 11.421 21.4489 11.5 21.25 11.5H20.885L20.142 21.153C20.1034 21.6554 19.8767 22.1248 19.507 22.4673C19.1373 22.8097 18.6519 23 18.148 23H11.852C11.3481 23 10.8627 22.8097 10.493 22.4673C10.1234 22.1248 9.89655 21.6554 9.858 21.153L9.115 11.5H8.75C8.55109 11.5 8.36032 11.421 8.21967 11.2803C8.07902 11.1397 8 10.9489 8 10.75C8 10.5511 8.07902 10.3603 8.21967 10.2197C8.36032 10.079 8.55109 10 8.75 10H11.25ZM10.62 11.5H19.38L18.646 21.038C18.6364 21.1636 18.5798 21.2809 18.4875 21.3666C18.3952 21.4522 18.2739 21.4999 18.148 21.5H11.852C11.7261 21.4999 11.6048 21.4522 11.5125 21.3666C11.4202 21.2809 11.3636 21.1636 11.354 21.038L10.62 11.5Z" fill="currentColor" />
	</g>
	<defs>
		<clipPath id="clip0_3_567">
			<rect width="30" height="30" fill="currentColor" />
		</clipPath>
	</defs>
</svg>
